{
  "accessors": [
    {
      "bufferView": 2,
      "componentType": 5126,
      "count": 22352,
      "max": [
        2.1209161281585693,
        2.455796718597412,
        1.5304895639419556
      ],
      "min": [
        -2.1209161281585693,
        0.054949309676885605,
        -1.530489444732666
      ],
      "type": "VEC3"
    },
    {
      "bufferView": 2,
      "byteOffset": 268224,
      "componentType": 5126,
      "count": 22352,
      "max": [
        0.9999997615814209,
        1.0,
        0.9999997019767761
      ],
      "min": [
        -0.9999997019767761,
        -1.0,
        -0.9999997019767761
      ],
      "type": "VEC3"
    },
    {
      "bufferView": 1,
      "componentType": 5126,
      "count": 22352,
      "max": [
        1.5640002489089966,
        2.25935959815979
      ],
      "min": [
        0.03187912702560425,
        0.03321189433336258
      ],
      "type": "VEC2"
    },
    {
      "bufferView": 0,
      "componentType": 5125,
      "count": 112152,
      "type": "SCALAR"
    }
  ],
  "asset": {
    "extras": {
      "author": "Ergane: Arqueologia Digital na Educação (https://sketchfab.com/Ergane)",
      "license": "CC-BY-4.0 (http://creativecommons.org/licenses/by/4.0/)",
      "source": "https://sketchfab.com/3d-models/esquifo-skyphos-a14f0d47ee45457281202ee4a5e15abe",
      "title": "Esquifo - skyphos - σκύφος"
    },
    "generator": "Sketchfab-15.5.0",
    "version": "2.0"
  },
  "bufferViews": [
    {
      "buffer": 0,
      "byteLength": 448608,
      "name": "floatBufferViews",
      "target": 34963
    },
    {
      "buffer": 0,
      "byteLength": 178816,
      "byteOffset": 448608,
      "byteStride": 8,
      "name": "floatBufferViews",
      "target": 34962
    },
    {
      "buffer": 0,
      "byteLength": 536448,
      "byteOffset": 627424,
      "byteStride": 12,
      "name": "floatBufferViews",
      "target": 34962
    }
  ],
  "buffers": [
    {
      "byteLength": 1163872,
      "uri": "scene.bin"
    }
  ],
  "images": [
    {
      "uri": "textures/Material.002_baseColor.png"
    }
  ],
  "materials": [
    {
      "doubleSided": true,
      "name": "Material.002",
      "pbrMetallicRoughness": {
        "baseColorTexture": {
          "index": 0
        },
        "metallicFactor": 0.0,
        "roughnessFactor": 0.5
      }
    }
  ],
  "meshes": [
    {
      "name": "Object_0",
      "primitives": [
        {
          "attributes": {
            "NORMAL": 1,
            "POSITION": 0,
            "TEXCOORD_0": 2
          },
          "indices": 3,
          "material": 0,
          "mode": 4
        }
      ]
    }
  ],
  "nodes": [
    {
      "children": [
        1
      ],
      "matrix": [
        1.0,
        0.0,
        0.0,
        0.0,
        0.0,
        2.220446049250313e-16,
        -1.0,
        0.0,
        0.0,
        1.0,
        2.220446049250313e-16,
        0.0,
        0.0,
        0.0,
        0.0,
        1.0
      ],
      "name": "Sketchfab_model"
    },
    {
      "children": [
        2
      ],
      "name": "root"
    },
    {
      "children": [
        3
      ],
      "matrix": [
        1.0,
        0.0,
        0.0,
        0.0,
        0.0,
        2.220446049250313e-16,
        1.0,
        0.0,
        0.0,
        -1.0,
        2.220446049250313e-16,
        0.0,
        0.0,
        0.0,
        0.0,
        1.0
      ],
      "name": "GLTF_SceneRootNode"
    },
    {
      "children": [
        4
      ],
      "matrix": [
        1.0291954278945923,
        0.0,
        0.0,
        0.0,
        0.0,
        1.0230146646499634,
        0.0,
        0.0,
        0.0,
        0.0,
        1.0291954278945923,
        0.0,
        0.0,
        -0.053401291370391846,
        0.0,
        1.0
      ],
      "name": "original COM SUB_4"
    },
    {
      "mesh": 0,
      "name": "Object_4"
    }
  ],
  "samplers": [
    {
      "magFilter": 9729,
      "minFilter": 9987,
      "wrapS": 10497,
      "wrapT": 10497
    }
  ],
  "scene": 0,
  "scenes": [
    {
      "name": "Sketchfab_Scene",
      "nodes": [
        0
      ]
    }
  ],
  "textures": [
    {
      "sampler": 0,
      "source": 0
    }
  ]
}
